<mxfile host="app.diagrams.net" agent="Mozilla/5.0 (Windows NT 10.0; Win64; x64) AppleWebKit/537.36 (KHTML, like Gecko) Chrome/130.0.0.0 Safari/537.36" version="24.8.4">
  <diagram name="Страница — 1" id="G84uFZuVmrkQKi_ffffj">
    <mxGraphModel dx="1539" dy="737" grid="0" gridSize="10" guides="1" tooltips="1" connect="1" arrows="1" fold="1" page="1" pageScale="1" pageWidth="827" pageHeight="1169" math="0" shadow="0">
      <root>
        <mxCell id="0" />
        <mxCell id="1" parent="0" />
        <mxCell id="kDMzE3e3oYd2NGhY_jBj-3" value="" style="edgeStyle=orthogonalEdgeStyle;rounded=0;orthogonalLoop=1;jettySize=auto;html=1;" parent="1" source="kDMzE3e3oYd2NGhY_jBj-1" target="kDMzE3e3oYd2NGhY_jBj-2" edge="1">
          <mxGeometry relative="1" as="geometry" />
        </mxCell>
        <mxCell id="kDMzE3e3oYd2NGhY_jBj-1" value="Start" style="ellipse;whiteSpace=wrap;html=1;fillColor=#d5e8d4;strokeColor=#82b366;" parent="1" vertex="1">
          <mxGeometry x="60" width="120" height="80" as="geometry" />
        </mxCell>
        <mxCell id="kDMzE3e3oYd2NGhY_jBj-5" value="" style="edgeStyle=orthogonalEdgeStyle;rounded=0;orthogonalLoop=1;jettySize=auto;html=1;" parent="1" source="kDMzE3e3oYd2NGhY_jBj-2" target="kDMzE3e3oYd2NGhY_jBj-4" edge="1">
          <mxGeometry relative="1" as="geometry" />
        </mxCell>
        <mxCell id="kDMzE3e3oYd2NGhY_jBj-2" value="&lt;div&gt;double factorial(int n) {&lt;/div&gt;&lt;div&gt;if (n &amp;lt;= 1) {&lt;/div&gt;&lt;div&gt;return 1;&lt;/div&gt;&lt;div&gt;}&lt;/div&gt;&lt;div&gt;return n * factorial(n - 1);&lt;/div&gt;&lt;div&gt;&lt;br&gt;&lt;/div&gt;" style="shape=process;whiteSpace=wrap;html=1;backgroundOutline=1;" parent="1" vertex="1">
          <mxGeometry y="110" width="240" height="110" as="geometry" />
        </mxCell>
        <mxCell id="kDMzE3e3oYd2NGhY_jBj-7" style="edgeStyle=orthogonalEdgeStyle;rounded=0;orthogonalLoop=1;jettySize=auto;html=1;exitX=0.5;exitY=1;exitDx=0;exitDy=0;entryX=0.5;entryY=0;entryDx=0;entryDy=0;" parent="1" source="kDMzE3e3oYd2NGhY_jBj-4" target="kDMzE3e3oYd2NGhY_jBj-6" edge="1">
          <mxGeometry relative="1" as="geometry">
            <Array as="points">
              <mxPoint x="120" y="330" />
              <mxPoint x="200" y="330" />
              <mxPoint x="200" y="390" />
            </Array>
          </mxGeometry>
        </mxCell>
        <mxCell id="kDMzE3e3oYd2NGhY_jBj-4" value="&lt;div&gt;&amp;nbsp;const double e = 0.0001&lt;/div&gt;&lt;div&gt;&amp;nbsp; &amp;nbsp; double sum = 0&lt;/div&gt;&lt;div&gt;&amp;nbsp; &amp;nbsp; int n = 0&lt;/div&gt;" style="rounded=0;whiteSpace=wrap;html=1;" parent="1" vertex="1">
          <mxGeometry x="30" y="260" width="180" height="50" as="geometry" />
        </mxCell>
        <mxCell id="kDMzE3e3oYd2NGhY_jBj-9" value="" style="edgeStyle=orthogonalEdgeStyle;rounded=0;orthogonalLoop=1;jettySize=auto;html=1;" parent="1" source="kDMzE3e3oYd2NGhY_jBj-6" target="kDMzE3e3oYd2NGhY_jBj-8" edge="1">
          <mxGeometry relative="1" as="geometry" />
        </mxCell>
        <mxCell id="kDMzE3e3oYd2NGhY_jBj-6" value="while (true)" style="rhombus;whiteSpace=wrap;html=1;" parent="1" vertex="1">
          <mxGeometry x="130" y="380" width="140" height="80" as="geometry" />
        </mxCell>
        <mxCell id="kDMzE3e3oYd2NGhY_jBj-11" value="" style="edgeStyle=orthogonalEdgeStyle;rounded=0;orthogonalLoop=1;jettySize=auto;html=1;" parent="1" source="kDMzE3e3oYd2NGhY_jBj-8" target="kDMzE3e3oYd2NGhY_jBj-10" edge="1">
          <mxGeometry relative="1" as="geometry" />
        </mxCell>
        <mxCell id="kDMzE3e3oYd2NGhY_jBj-8" value="(3^n*n!)/(3n!)" style="rounded=0;whiteSpace=wrap;html=1;" parent="1" vertex="1">
          <mxGeometry x="140" y="490" width="120" height="60" as="geometry" />
        </mxCell>
        <mxCell id="kDMzE3e3oYd2NGhY_jBj-17" style="edgeStyle=orthogonalEdgeStyle;rounded=0;orthogonalLoop=1;jettySize=auto;html=1;exitX=0.5;exitY=1;exitDx=0;exitDy=0;entryX=0.5;entryY=0;entryDx=0;entryDy=0;" parent="1" source="kDMzE3e3oYd2NGhY_jBj-10" target="kDMzE3e3oYd2NGhY_jBj-16" edge="1">
          <mxGeometry relative="1" as="geometry" />
        </mxCell>
        <mxCell id="kDMzE3e3oYd2NGhY_jBj-10" value="sum = sum + s" style="whiteSpace=wrap;html=1;rounded=0;" parent="1" vertex="1">
          <mxGeometry x="140" y="565" width="120" height="20" as="geometry" />
        </mxCell>
        <mxCell id="kDMzE3e3oYd2NGhY_jBj-14" style="edgeStyle=orthogonalEdgeStyle;rounded=0;orthogonalLoop=1;jettySize=auto;html=1;exitX=0.5;exitY=1;exitDx=0;exitDy=0;" parent="1" source="kDMzE3e3oYd2NGhY_jBj-12" edge="1">
          <mxGeometry relative="1" as="geometry">
            <mxPoint x="200" y="360" as="targetPoint" />
            <Array as="points">
              <mxPoint x="200" y="740" />
              <mxPoint x="321" y="740" />
              <mxPoint x="321" y="360" />
            </Array>
          </mxGeometry>
        </mxCell>
        <mxCell id="kDMzE3e3oYd2NGhY_jBj-12" value="n++" style="whiteSpace=wrap;html=1;rounded=0;" parent="1" vertex="1">
          <mxGeometry x="140" y="670" width="120" height="60" as="geometry" />
        </mxCell>
        <mxCell id="kDMzE3e3oYd2NGhY_jBj-20" style="edgeStyle=orthogonalEdgeStyle;rounded=0;orthogonalLoop=1;jettySize=auto;html=1;exitX=0;exitY=0.5;exitDx=0;exitDy=0;entryX=0.5;entryY=0;entryDx=0;entryDy=0;" parent="1" source="kDMzE3e3oYd2NGhY_jBj-16" target="kDMzE3e3oYd2NGhY_jBj-19" edge="1">
          <mxGeometry relative="1" as="geometry" />
        </mxCell>
        <mxCell id="kDMzE3e3oYd2NGhY_jBj-23" value="" style="edgeStyle=orthogonalEdgeStyle;rounded=0;orthogonalLoop=1;jettySize=auto;html=1;" parent="1" source="kDMzE3e3oYd2NGhY_jBj-16" target="kDMzE3e3oYd2NGhY_jBj-12" edge="1">
          <mxGeometry relative="1" as="geometry" />
        </mxCell>
        <mxCell id="kDMzE3e3oYd2NGhY_jBj-16" value="s &amp;lt; e" style="rhombus;whiteSpace=wrap;html=1;" parent="1" vertex="1">
          <mxGeometry x="160" y="600" width="80" height="55" as="geometry" />
        </mxCell>
        <mxCell id="kDMzE3e3oYd2NGhY_jBj-22" style="edgeStyle=orthogonalEdgeStyle;rounded=0;orthogonalLoop=1;jettySize=auto;html=1;exitX=0.5;exitY=1;exitDx=0;exitDy=0;entryX=0.5;entryY=0;entryDx=0;entryDy=0;" parent="1" source="kDMzE3e3oYd2NGhY_jBj-19" target="kDMzE3e3oYd2NGhY_jBj-21" edge="1">
          <mxGeometry relative="1" as="geometry" />
        </mxCell>
        <mxCell id="kDMzE3e3oYd2NGhY_jBj-19" value="cout &amp;lt;&amp;lt; &quot;Сума ряду з точністю epsilon = &quot; &amp;lt;&amp;lt; e &amp;lt;&amp;lt; &quot; дорівнює: &quot; &amp;lt;&amp;lt; sum&amp;nbsp;" style="shape=parallelogram;perimeter=parallelogramPerimeter;whiteSpace=wrap;html=1;fixedSize=1;" parent="1" vertex="1">
          <mxGeometry x="-60" y="740" width="240" height="50" as="geometry" />
        </mxCell>
        <mxCell id="kDMzE3e3oYd2NGhY_jBj-21" value="End" style="ellipse;whiteSpace=wrap;html=1;fillColor=#f8cecc;strokeColor=#b85450;" parent="1" vertex="1">
          <mxGeometry x="140" y="820" width="120" height="80" as="geometry" />
        </mxCell>
        <mxCell id="kDMzE3e3oYd2NGhY_jBj-24" value="Yes" style="text;html=1;align=center;verticalAlign=middle;whiteSpace=wrap;rounded=0;" parent="1" vertex="1">
          <mxGeometry x="90" y="600" width="60" height="30" as="geometry" />
        </mxCell>
      </root>
    </mxGraphModel>
  </diagram>
</mxfile>
